<?xml version="1.0" standalone="no"?>
<!DOCTYPE svg PUBLIC "-//W3C//DTD SVG 20010904//EN"
 "http://www.w3.org/TR/2001/REC-SVG-20010904/DTD/svg10.dtd">
<svg version="1.0" xmlns="http://www.w3.org/2000/svg"
 width="242.000000pt" height="209.000000pt" viewBox="0 0 242.000000 209.000000"
 preserveAspectRatio="xMidYMid meet">

<g transform="translate(0.000000,209.000000) scale(0.100000,-0.100000)"
fill="#000000" stroke="none">
<path d="M832 1475 l-134 -234 134 -236 133 -235 50 2 50 3 42 70 c24 38 43
73 43 77 0 4 -24 8 -52 8 l-53 0 -60 102 c-33 57 -73 124 -88 150 l-29 48 175
0 175 0 74 -135 c55 -101 76 -131 84 -122 18 20 154 257 154 268 0 11 -136
246 -154 266 -8 9 -31 -23 -86 -123 l-75 -134 -173 0 -174 0 29 48 c15 26 55
94 88 150 l60 102 52 0 c29 0 53 3 53 7 0 4 -19 40 -42 80 l-42 73 -50 0 -51
0 -133 -235z"/>
<path d="M1110 1704 c0 -10 61 -117 78 -136 12 -15 32 -18 107 -18 l92 0 92
-155 92 -155 -93 -155 -93 -155 -96 0 -95 0 -42 -73 c-23 -40 -42 -76 -42 -79
0 -4 87 -7 194 -8 l194 -1 135 237 135 236 -133 231 -132 232 -197 3 c-108 1
-196 0 -196 -4z"/>
<path d="M170 460 c-18 -18 -20 -33 -20 -139 0 -155 5 -162 114 -169 42 -2
102 -1 132 3 51 6 57 10 69 39 10 23 13 68 12 139 -3 147 -3 147 -164 147
-110 0 -125 -2 -143 -20z m238 -142 l-3 -93 -90 0 -90 0 -3 93 -3 92 96 0 96
0 -3 -92z"/>
<path d="M530 321 l0 -159 25 -6 c38 -10 45 0 45 54 l0 48 111 4 c135 4 139 7
139 114 0 101 -5 104 -182 104 l-138 0 0 -159z m250 49 l0 -40 -90 0 -90 0 0
40 0 40 90 0 90 0 0 -40z"/>
<path d="M890 316 l0 -165 148 2 147 2 3 33 3 32 -115 0 -116 0 0 30 0 30 90
0 90 0 0 35 0 35 -90 0 -90 0 0 30 0 30 115 0 115 0 0 35 0 35 -150 0 -150 0
0 -164z"/>
<path d="M1240 318 l0 -163 30 -2 30 -2 0 104 c0 58 4 105 9 105 5 0 46 -45
92 -100 78 -95 85 -100 121 -100 l38 0 0 160 0 160 -35 0 -34 0 -3 -105 -3
-106 -89 106 c-80 95 -92 105 -123 105 l-33 0 0 -162z"/>
<path d="M1638 466 c-10 -7 -21 -27 -24 -45 -6 -30 -6 -31 30 -31 20 0 36 5
36 10 0 6 35 10 85 10 l85 0 0 -30 0 -29 -92 -3 -93 -3 0 -30 0 -30 98 -3 97
-3 0 -29 0 -30 -89 0 c-68 0 -90 3 -94 14 -4 9 -17 14 -34 13 -35 -3 -42 -34
-14 -68 18 -23 24 -24 140 -24 109 0 122 2 142 21 20 20 21 27 14 144 -10 162
-8 160 -157 160 -78 -1 -118 -5 -130 -14z"/>
<path d="M1992 318 l3 -163 100 -3 c119 -4 179 4 200 24 12 12 15 43 15 144 0
166 7 160 -182 160 l-138 0 2 -162z m248 -3 l0 -96 -87 3 -88 3 -3 93 -3 92
91 0 90 0 0 -95z"/>
</g>
</svg>
